<svg width="32" height="33" fill="none" xmlns="http://www.w3.org/2000/svg"><path opacity=".4" d="M7.408 32.794h17.184c4.526 0 6.33-2.771 6.542-6.15l.853-13.543c.23-3.542-2.59-6.542-6.149-6.542-1 0-1.918-.574-2.377-1.46L22.28 2.722C21.526 1.23 19.558 0 17.886 0H14.13c-1.69 0-3.657 1.23-4.411 2.722L8.54 5.099a2.694 2.694 0 0 1-2.378 1.46c-3.558 0-6.378 3-6.149 6.542l.853 13.544c.196 3.378 2.017 6.149 6.542 6.149z" fill="#0B1D28"/><path d="M18.46 11.068h-4.92c-.672 0-1.23-.558-1.23-1.23 0-.672.558-1.23 1.23-1.23h4.92c.672 0 1.23.558 1.23 1.23 0 .672-.558 1.23-1.23 1.23zM15.998 26.448a5.542 5.542 0 1 0 0-11.084 5.542 5.542 0 0 0 0 11.084z" fill="#0B1D28"/></svg>