<svg width="32" height="32" viewBox="0 0 32 32" fill="none" xmlns="http://www.w3.org/2000/svg">
<path d="M16 32C7.17395 32 0 24.826 0 16C0 7.17395 7.17395 0 16 0C24.826 0 32 7.17395 32 16C32 16.6102 31.494 17.1163 30.8837 17.1163C30.2735 17.1163 29.7674 16.6102 29.7674 16C29.7674 8.4093 23.5907 2.23256 16 2.23256C8.4093 2.23256 2.23256 8.4093 2.23256 16C2.23256 23.5907 8.4093 29.7674 16 29.7674C16.6102 29.7674 17.1163 30.2735 17.1163 30.8837C17.1163 31.494 16.6102 32 16 32Z" fill="#CAE9FF"/>
<path d="M11.5352 30.5116H10.0469C9.43663 30.5116 8.93059 30.0056 8.93059 29.3953C8.93059 28.7851 9.40685 28.294 10.0171 28.2791C7.68034 20.3014 7.68034 11.6986 10.0171 3.72093C9.42174 3.70605 8.93059 3.21488 8.93059 2.60465C8.93059 1.99442 9.43663 1.48837 10.0469 1.48837H11.5352C11.8924 1.48837 12.2348 1.66698 12.4431 1.94977C12.6515 2.24744 12.7111 2.61952 12.592 2.96185C9.79386 11.3711 9.79386 20.6437 12.592 29.053C12.7111 29.3953 12.6515 29.7674 12.4431 30.0651C12.2348 30.3628 11.8924 30.5116 11.5352 30.5116Z" fill="#CAE9FF"/>
<path d="M22.6387 17.1163C22.0285 17.1163 21.5224 16.6102 21.5224 16C21.5224 11.5646 20.808 7.17388 19.409 2.96179C19.2155 2.38133 19.528 1.74131 20.1085 1.54782C20.689 1.35433 21.329 1.66694 21.5224 2.2474C22.9959 6.68275 23.755 11.3116 23.755 16C23.755 16.6102 23.249 17.1163 22.6387 17.1163Z" fill="#CAE9FF"/>
<path d="M16 23.7541C11.8326 23.7541 7.7098 23.1588 3.72096 21.983C3.70608 22.5783 3.21491 23.0695 2.60468 23.0695C1.99445 23.0695 1.4884 22.5634 1.4884 21.9532V20.4648C1.4884 20.1076 1.66701 19.7653 1.9498 19.5569C2.24747 19.3485 2.61958 19.289 2.96191 19.4081C7.174 20.8071 11.5647 21.5216 16 21.5216C16.6103 21.5216 17.1163 22.0276 17.1163 22.6378C17.1163 23.2481 16.6103 23.7541 16 23.7541Z" fill="#CAE9FF"/>
<path d="M29.3964 12.651C29.2773 12.651 29.1582 12.6362 29.0392 12.5915C20.6299 9.79337 11.3573 9.79337 2.94796 12.5915C2.36749 12.785 1.72751 12.4724 1.53402 11.8919C1.34053 11.3115 1.65309 10.6714 2.23355 10.4779C11.1043 7.51608 20.868 7.51608 29.7238 10.4779C30.3043 10.6714 30.6169 11.3115 30.4234 11.8919C30.3043 12.3533 29.8578 12.651 29.3964 12.651Z" fill="#CAE9FF"/>
<path d="M25.2279 31.107C21.9833 31.107 19.3489 28.4726 19.3489 25.2279C19.3489 21.9833 21.9833 19.3488 25.2279 19.3488C28.4726 19.3488 31.107 21.9833 31.107 25.2279C31.107 28.4726 28.4726 31.107 25.2279 31.107ZM25.2279 21.5814C23.2186 21.5814 21.5814 23.2186 21.5814 25.2279C21.5814 27.2372 23.2186 28.8744 25.2279 28.8744C27.2372 28.8744 28.8745 27.2372 28.8745 25.2279C28.8745 23.2186 27.2372 21.5814 25.2279 21.5814Z" fill="#CAE9FF"/>
<path d="M30.883 32C30.6002 32 30.3174 31.8958 30.0941 31.6726L28.6058 30.1842C28.1741 29.7526 28.1741 29.038 28.6058 28.6064C29.0374 28.1747 29.7518 28.1747 30.1834 28.6064L31.6718 30.0947C32.1034 30.5264 32.1034 31.2409 31.6718 31.6726C31.4486 31.8958 31.1658 32 30.883 32Z" fill="#CAE9FF"/>
</svg>
