<svg width="141" height="32" fill="none" xmlns="http://www.w3.org/2000/svg"><path d="M12.625 19.5V25H.141v-5.5h2.5V5.64H.14V.14L12.625.11v5.53h-1.984v4.094h5.984V5.641h-1.984V.109l12.468.032v5.5h-2.484V19.5h2.484V25H14.641v-5.5h1.984v-4.422h-5.984V19.5h1.984zm26.14 5.781c-1.937 0-3.62-.36-5.046-1.078-1.438-.708-2.542-1.724-3.313-3.047-.76-1.323-1.14-2.87-1.14-4.64 0-1.75.375-3.271 1.125-4.563.74-1.281 1.786-2.27 3.14-2.969 1.354-.698 2.943-1.046 4.766-1.046 1.677 0 3.156.328 4.437.984 1.282.667 2.271 1.61 2.97 2.828.707 1.219 1.062 2.64 1.062 4.266 0 .562-.084 1.093-.25 1.593H36.78c0 .98.37 1.766 1.11 2.36.74.583 1.63.875 2.672.875.791 0 1.661-.136 2.609-.407.948-.28 1.9-.713 2.86-1.296l.265.093v4.203a14.265 14.265 0 0 1-3.313 1.391c-1.125.302-2.53.453-4.218.453zm-1.984-10.875v.453h4v-.328c0-.74-.172-1.375-.515-1.906-.334-.542-.834-.813-1.5-.813-.552 0-1.021.277-1.407.829a2.983 2.983 0 0 0-.578 1.765zm25.516 5.89V25h-12.64v-4.703h2.75V5.89h-2.75V1.64L59.89.609v19.688h2.406zM76 31.204H64.484V26.47H66.5V13.094h-2.016V8.906l9.5-.969v2.657a6.886 6.886 0 0 1 2.063-1.875c.844-.521 1.833-.781 2.969-.781 1.49 0 2.76.385 3.812 1.156 1.052.77 1.839 1.807 2.36 3.11.53 1.301.796 2.75.796 4.343 0 1.583-.26 3.047-.78 4.39-.522 1.323-1.313 2.38-2.376 3.172-1.052.782-2.333 1.172-3.844 1.172-1.052 0-2.01-.203-2.875-.61-.854-.416-1.562-.926-2.125-1.53V26.5H76v4.703zm.234-10.484c.938 0 1.63-.375 2.079-1.125.447-.75.671-1.735.671-2.953 0-1.25-.244-2.25-.734-3s-1.13-1.125-1.922-1.125c-.531 0-1.01.135-1.437.406-.428.26-.73.604-.907 1.031v5.422c.47.896 1.22 1.344 2.25 1.344zM97.61 25.28c-1.937 0-3.62-.36-5.046-1.078-1.438-.708-2.542-1.724-3.313-3.047-.76-1.323-1.14-2.87-1.14-4.64 0-1.75.374-3.271 1.124-4.563.74-1.281 1.787-2.27 3.141-2.969 1.354-.698 2.943-1.046 4.766-1.046 1.677 0 3.156.328 4.437.984 1.281.667 2.271 1.61 2.969 2.828.708 1.219 1.062 2.64 1.062 4.266 0 .562-.083 1.093-.25 1.593h-9.734c0 .98.37 1.766 1.11 2.36.739.583 1.63.875 2.671.875.792 0 1.662-.136 2.61-.407.948-.28 1.901-.713 2.859-1.296l.266.093v4.203a14.26 14.26 0 0 1-3.313 1.391c-1.125.302-2.531.453-4.219.453zm-1.984-10.875v.453h4v-.328c0-.74-.172-1.375-.516-1.906-.333-.542-.833-.813-1.5-.813-.552 0-1.02.277-1.406.829a2.983 2.983 0 0 0-.578 1.765zM120.047 25h-12v-4.703h2.015v-7.203h-2.015V8.875l9.5-.938v2.72c.333-.522.823-.985 1.469-1.391a8.46 8.46 0 0 1 2.062-.97c.74-.239 1.401-.358 1.984-.358v6.625c-1.218-.407-2.223-.61-3.015-.61-1 0-1.667.292-2 .875-.333.573-.5 1.328-.5 2.266v3.203h2.5V25zm13.844.281c-2.136 0-4.026-.562-5.672-1.687L127.703 25h-2.906v-6.172h3.484c.136.792.505 1.5 1.11 2.125.604.625 1.302.938 2.093.938.302 0 .563-.084.782-.25.229-.167.343-.443.343-.828 0-.386-.218-.735-.656-1.047-.448-.323-1.114-.693-2-1.11-1.073-.531-1.948-1.015-2.625-1.453a6.348 6.348 0 0 1-1.781-1.719c-.5-.718-.75-1.578-.75-2.578 0-1.031.338-1.927 1.015-2.687.678-.75 1.568-1.318 2.672-1.703 1.105-.386 2.308-.579 3.61-.579 1.698 0 3.276.448 4.734 1.344l.391-1.015h2.593v4.984h-3.015c-.261-.677-.636-1.208-1.125-1.594a2.7 2.7 0 0 0-1.719-.578c-.771 0-1.156.245-1.156.735.01.333.213.62.609.859.396.229 1.037.541 1.922.937a23.962 23.962 0 0 1 2.75 1.344c.729.427 1.365 1.031 1.906 1.813.542.77.813 1.734.813 2.89 0 1.23-.318 2.26-.953 3.094-.636.844-1.479 1.48-2.532 1.906-1.052.417-2.192.625-3.421.625z" fill="#CAE9FF"/></svg>