<svg width="21" height="21" fill="none" xmlns="http://www.w3.org/2000/svg"><path d="m16.879 15.23.383 3.107c.098.816-.777 1.386-1.475.963l-3.401-2.025c-.236-.137-.295-.432-.167-.668a6.209 6.209 0 0 0 .757-2.95c0-3.598-3.087-6.527-6.882-6.527-.777 0-1.534.118-2.241.353a.496.496 0 0 1-.63-.59C4.118 3.316 7.56.652 11.668.652c4.798 0 8.681 3.628 8.681 8.1 0 2.655-1.366 5.005-3.47 6.48z" fill="#FAFDFF"/><path d="M11.501 13.657c0 1.17-.432 2.252-1.16 3.107-.973 1.18-2.517 1.937-4.247 1.937l-2.566 1.523c-.432.266-.983-.098-.924-.6l.246-1.936c-1.318-.914-2.163-2.38-2.163-4.03 0-1.731.924-3.255 2.34-4.16a5.587 5.587 0 0 1 3.067-.894c2.989 0 5.407 2.261 5.407 5.053z" fill="#FAFDFF"/></svg>