<svg width="20" height="22" fill="none" xmlns="http://www.w3.org/2000/svg"><path d="M15.058 15.09c.7-.46 1.62.042 1.62.878v1.348c0 1.327-1.035 2.748-2.278 3.166l-3.334 1.108c-.585.198-1.536.198-2.11 0L5.62 20.482c-1.254-.418-2.278-1.84-2.278-3.166v-1.359c0-.825.92-1.327 1.61-.878l2.152 1.4c.826.555 1.871.826 2.916.826s2.09-.271 2.916-.825l2.121-1.39z" fill="#FAFDFF"/><path d="m18.349 5.494-6.26-4.107C10.96.645 9.1.645 7.971 1.387l-6.29 4.107c-2.018 1.307-2.018 4.264 0 5.581l1.671 1.087 4.62 3.01c1.128.742 2.988.742 4.117 0l4.588-3.01 1.431-.94v3.197a.79.79 0 0 0 .784.784.79.79 0 0 0 .784-.784V9.278c.418-1.349-.01-2.916-1.327-3.784z" fill="#FAFDFF"/></svg>