<svg width="26" height="20" fill="none" xmlns="http://www.w3.org/2000/svg"><path d="M16.17 10.46c0 1.36-1.379 2.46-3.085 2.46S10 11.82 10 10.46C10 9.1 11.379 8 13.085 8s3.085 1.1 3.085 2.46z" fill="#5FA8D3" stroke="#5FA8D3" stroke-width="3" stroke-linecap="round" stroke-linejoin="round"/><path d="M13.168 18c4.029 0 7.784-2.01 10.398-5.491 1.027-1.363 1.027-3.655 0-5.018C20.951 4.011 17.195 2 13.168 2 9.139 2 5.384 4.01 2.77 7.491c-1.027 1.363-1.027 3.655 0 5.018C5.384 15.989 9.14 18 13.168 18z" stroke="#5FA8D3" stroke-width="3" stroke-linecap="round" stroke-linejoin="round"/></svg>